<svg xmlns="http://www.w3.org/2000/svg" viewBox="0 0 420 1200"><defs><linearGradient id="msombra" x1="0" y1="0" x2="0" y2="1"><stop offset="0" stop-color="rgb(44,66,104)" stop-opacity=".55"/><stop offset="1" stop-color="rgb(44,66,104)" stop-opacity="0"/></linearGradient><linearGradient id="mrasa" x1="0" y1="0" x2=".7" y2="1"><stop offset="0" stop-color="rgb(255,255,255)" stop-opacity=".46"/><stop offset=".38" stop-color="rgb(255,255,255)" stop-opacity=".14"/><stop offset=".68" stop-color="rgb(255,255,255)" stop-opacity="0"/><stop offset="1" stop-color="rgb(28,48,92)" stop-opacity=".075"/></linearGradient><radialGradient id="m1"><stop offset="0" stop-color="rgb(255,255,255)" stop-opacity=".44"/><stop offset="1" stop-color="rgb(255,255,255)" stop-opacity="0"/></radialGradient><radialGradient id="m2"><stop offset="0" stop-color="rgb(47,107,255)" stop-opacity=".08"/><stop offset="1" stop-color="rgb(47,107,255)" stop-opacity="0"/></radialGradient></defs><path d="M-260 0L120 1200 L420 1200 L40 0Z" fill="rgb(126,156,205)" opacity="0.048"/><path d="M-260 0L120 1200" stroke="rgb(255,255,255)" stroke-width="1" fill="none" opacity="0.260"/><path d="M150 0L560 1200 L860 1200 L450 0Z" fill="rgb(126,156,205)" opacity="0.038"/><path d="M150 0L560 1200" stroke="rgb(255,255,255)" stroke-width="1" fill="none" opacity="0.200"/><path d="M210 1110h90v5h-90z" fill="url(#msombra)" opacity="0.361"/><rect x="210" y="1080" width="90" height="30" fill="rgb(128,158,206)" opacity="0.139"/><rect x="210" y="1080" width="90" height="1" fill="#FFFFFF" opacity="0.334"/><path d="M0 1080h120v5h-120z" fill="url(#msombra)" opacity="0.393"/><rect x="0" y="1050" width="120" height="30" fill="rgb(198,213,236)" opacity="0.151"/><rect x="0" y="1050" width="120" height="1" fill="#FFFFFF" opacity="0.362"/><path d="M240 1110h60v5h-60z" fill="url(#msombra)" opacity="0.309"/><rect x="240" y="1080" width="60" height="30" fill="rgb(176,196,226)" opacity="0.119"/><rect x="240" y="1080" width="60" height="1" fill="#FFFFFF" opacity="0.286"/><path d="M390 660h120v5h-120z" fill="url(#msombra)" opacity="0.291"/><rect x="390" y="630" width="120" height="30" fill="rgb(176,196,226)" opacity="0.112"/><rect x="390" y="630" width="120" height="1" fill="#FFFFFF" opacity="0.269"/><path d="M0 930h150v5h-150z" fill="url(#msombra)" opacity="0.291"/><rect x="0" y="900" width="150" height="30" fill="rgb(128,158,206)" opacity="0.112"/><rect x="0" y="900" width="150" height="1" fill="#FFFFFF" opacity="0.269"/><path d="M270 1080h30v5h-30z" fill="url(#msombra)" opacity="0.382"/><rect x="270" y="1050" width="30" height="30" fill="rgb(150,176,216)" opacity="0.147"/><rect x="270" y="1050" width="30" height="1" fill="#FFFFFF" opacity="0.353"/><path d="M240 1200h150v5h-150z" fill="url(#msombra)" opacity="0.38"/><rect x="240" y="1170" width="150" height="30" fill="rgb(128,158,206)" opacity="0.146"/><rect x="240" y="1170" width="150" height="1" fill="#FFFFFF" opacity="0.35"/><path d="M300 1170h120v5h-120z" fill="url(#msombra)" opacity="0.478"/><rect x="300" y="1140" width="120" height="30" fill="rgb(128,158,206)" opacity="0.184"/><rect x="300" y="1140" width="120" height="1" fill="#FFFFFF" opacity="0.442"/><path d="M270 480h90v5h-90z" fill="url(#msombra)" opacity="0.174"/><rect x="270" y="450" width="90" height="30" fill="rgb(150,176,216)" opacity="0.067"/><rect x="270" y="450" width="90" height="1" fill="#FFFFFF" opacity="0.161"/><path d="M330 1110h90v5h-90z" fill="url(#msombra)" opacity="0.335"/><rect x="330" y="1080" width="90" height="30" fill="rgb(176,196,226)" opacity="0.129"/><rect x="330" y="1080" width="90" height="1" fill="#FFFFFF" opacity="0.31"/><path d="M390 960h150v5h-150z" fill="url(#msombra)" opacity="0.343"/><rect x="390" y="930" width="150" height="30" fill="rgb(128,158,206)" opacity="0.132"/><rect x="390" y="930" width="150" height="1" fill="#FFFFFF" opacity="0.317"/><path d="M270 1110h30v5h-30z" fill="url(#msombra)" opacity="0.445"/><rect x="270" y="1080" width="30" height="30" fill="rgb(150,176,216)" opacity="0.171"/><rect x="270" y="1080" width="30" height="1" fill="#FFFFFF" opacity="0.41"/><path d="M0 1200h30v5h-30z" fill="url(#msombra)" opacity="0.33"/><rect x="0" y="1170" width="30" height="30" fill="rgb(128,158,206)" opacity="0.127"/><rect x="0" y="1170" width="30" height="1" fill="#FFFFFF" opacity="0.305"/><path d="M30 600h90v5h-90z" fill="url(#msombra)" opacity="0.208"/><rect x="30" y="570" width="90" height="30" fill="rgb(198,213,236)" opacity="0.08"/><rect x="30" y="570" width="90" height="1" fill="#FFFFFF" opacity="0.192"/><path d="M330 1050h90v5h-90z" fill="url(#msombra)" opacity="0.385"/><rect x="330" y="1020" width="90" height="30" fill="rgb(198,213,236)" opacity="0.148"/><rect x="330" y="1020" width="90" height="1" fill="#FFFFFF" opacity="0.355"/><path d="M150 1080h30v5h-30z" fill="url(#msombra)" opacity="0.356"/><rect x="150" y="1050" width="30" height="30" fill="rgb(128,158,206)" opacity="0.137"/><rect x="150" y="1050" width="30" height="1" fill="#FFFFFF" opacity="0.329"/><path d="M120 1110h90v5h-90z" fill="url(#msombra)" opacity="0.296"/><rect x="120" y="1080" width="90" height="30" fill="rgb(150,176,216)" opacity="0.114"/><rect x="120" y="1080" width="90" height="1" fill="#FFFFFF" opacity="0.274"/><path d="M180 1110h30v5h-30z" fill="url(#msombra)" opacity="0.434"/><rect x="180" y="1080" width="30" height="30" fill="rgb(198,213,236)" opacity="0.167"/><rect x="180" y="1080" width="30" height="1" fill="#FFFFFF" opacity="0.401"/><path d="M210 990h60v5h-60z" fill="url(#msombra)" opacity="0.4"/><rect x="210" y="960" width="60" height="30" fill="rgb(198,213,236)" opacity="0.154"/><rect x="210" y="960" width="60" height="1" fill="#FFFFFF" opacity="0.37"/><path d="M60 900h30v5h-30z" fill="url(#msombra)" opacity="0.395"/><rect x="60" y="870" width="30" height="30" fill="rgb(128,158,206)" opacity="0.152"/><rect x="60" y="870" width="30" height="1" fill="#FFFFFF" opacity="0.365"/><path d="M120 1050h120v5h-120z" fill="url(#msombra)" opacity="0.45"/><rect x="120" y="1020" width="120" height="30" fill="rgb(176,196,226)" opacity="0.173"/><rect x="120" y="1020" width="120" height="1" fill="#FFFFFF" opacity="0.415"/><path d="M90 570h60v5h-60z" fill="url(#msombra)" opacity="0.218"/><rect x="90" y="540" width="60" height="30" fill="rgb(128,158,206)" opacity="0.084"/><rect x="90" y="540" width="60" height="1" fill="#FFFFFF" opacity="0.202"/><path d="M330 1140h90v5h-90z" fill="url(#msombra)" opacity="0.406"/><rect x="330" y="1110" width="90" height="30" fill="rgb(198,213,236)" opacity="0.156"/><rect x="330" y="1110" width="90" height="1" fill="#FFFFFF" opacity="0.374"/><path d="M330 840h60v5h-60z" fill="url(#msombra)" opacity="0.372"/><rect x="330" y="810" width="60" height="30" fill="rgb(176,196,226)" opacity="0.143"/><rect x="330" y="810" width="60" height="1" fill="#FFFFFF" opacity="0.343"/><path d="M300 540h60v5h-60z" fill="url(#msombra)" opacity="0.221"/><rect x="300" y="510" width="60" height="30" fill="rgb(150,176,216)" opacity="0.085"/><rect x="300" y="510" width="60" height="1" fill="#FFFFFF" opacity="0.204"/><path d="M360 870h120v5h-120z" fill="url(#msombra)" opacity="0.26"/><rect x="360" y="840" width="120" height="30" fill="rgb(176,196,226)" opacity="0.1"/><rect x="360" y="840" width="120" height="1" fill="#FFFFFF" opacity="0.24"/><path d="M390 900h90v5h-90z" fill="url(#msombra)" opacity="0.289"/><rect x="390" y="870" width="90" height="30" fill="rgb(198,213,236)" opacity="0.111"/><rect x="390" y="870" width="90" height="1" fill="#FFFFFF" opacity="0.266"/><path d="M90 990h60v5h-60z" fill="url(#msombra)" opacity="0.356"/><rect x="90" y="960" width="60" height="30" fill="rgb(198,213,236)" opacity="0.137"/><rect x="90" y="960" width="60" height="1" fill="#FFFFFF" opacity="0.329"/><path d="M270 1140h120v5h-120z" fill="url(#msombra)" opacity="0.411"/><rect x="270" y="1110" width="120" height="30" fill="rgb(128,158,206)" opacity="0.158"/><rect x="270" y="1110" width="120" height="1" fill="#FFFFFF" opacity="0.379"/><path d="M60 1200h90v5h-90z" fill="url(#msombra)" opacity="0.403"/><rect x="60" y="1170" width="90" height="30" fill="rgb(176,196,226)" opacity="0.155"/><rect x="60" y="1170" width="90" height="1" fill="#FFFFFF" opacity="0.372"/><path d="M270 780h60v5h-60z" fill="url(#msombra)" opacity="0.299"/><rect x="270" y="750" width="60" height="30" fill="rgb(176,196,226)" opacity="0.115"/><rect x="270" y="750" width="60" height="1" fill="#FFFFFF" opacity="0.276"/><path d="M240 780h150v5h-150z" fill="url(#msombra)" opacity="0.278"/><rect x="240" y="750" width="150" height="30" fill="rgb(128,158,206)" opacity="0.107"/><rect x="240" y="750" width="150" height="1" fill="#FFFFFF" opacity="0.257"/><path d="M60 960h90v5h-90z" fill="url(#msombra)" opacity="0.322"/><rect x="60" y="930" width="90" height="30" fill="rgb(176,196,226)" opacity="0.124"/><rect x="60" y="930" width="90" height="1" fill="#FFFFFF" opacity="0.298"/><path d="M180 1200h90v5h-90z" fill="url(#msombra)" opacity="0.408"/><rect x="180" y="1170" width="90" height="30" fill="rgb(150,176,216)" opacity="0.157"/><rect x="180" y="1170" width="90" height="1" fill="#FFFFFF" opacity="0.377"/><path d="M90 990h150v5h-150z" fill="url(#msombra)" opacity="0.348"/><rect x="90" y="960" width="150" height="30" fill="rgb(198,213,236)" opacity="0.134"/><rect x="90" y="960" width="150" height="1" fill="#FFFFFF" opacity="0.322"/><path d="M30 1080h120v5h-120z" fill="url(#msombra)" opacity="0.369"/><rect x="30" y="1050" width="120" height="30" fill="rgb(150,176,216)" opacity="0.142"/><rect x="30" y="1050" width="120" height="1" fill="#FFFFFF" opacity="0.341"/><path d="M0 1140h90v5h-90z" fill="url(#msombra)" opacity="0.413"/><rect x="0" y="1110" width="90" height="30" fill="rgb(150,176,216)" opacity="0.159"/><rect x="0" y="1110" width="90" height="1" fill="#FFFFFF" opacity="0.382"/><path d="M30 660h90v5h-90z" fill="url(#msombra)" opacity="0.224"/><rect x="30" y="630" width="90" height="30" fill="rgb(176,196,226)" opacity="0.086"/><rect x="30" y="630" width="90" height="1" fill="#FFFFFF" opacity="0.206"/><path d="M390 360h90v5h-90z" fill="url(#msombra)" opacity="0.192"/><rect x="390" y="330" width="90" height="30" fill="rgb(150,176,216)" opacity="0.074"/><rect x="390" y="330" width="90" height="1" fill="#FFFFFF" opacity="0.178"/><path d="M180 690h90v5h-90z" fill="url(#msombra)" opacity="0.27"/><rect x="180" y="660" width="90" height="30" fill="rgb(198,213,236)" opacity="0.104"/><rect x="180" y="660" width="90" height="1" fill="#FFFFFF" opacity="0.25"/><path d="M300 630h60v5h-60z" fill="url(#msombra)" opacity="0.307"/><rect x="300" y="600" width="60" height="30" fill="rgb(150,176,216)" opacity="0.118"/><rect x="300" y="600" width="60" height="1" fill="#FFFFFF" opacity="0.283"/><path d="M300 840h90v5h-90z" fill="url(#msombra)" opacity="0.351"/><rect x="300" y="810" width="90" height="30" fill="rgb(198,213,236)" opacity="0.135"/><rect x="300" y="810" width="90" height="1" fill="#FFFFFF" opacity="0.324"/><path d="M0 1170h30v5h-30z" fill="url(#msombra)" opacity="0.452"/><rect x="0" y="1140" width="30" height="30" fill="rgb(128,158,206)" opacity="0.174"/><rect x="0" y="1140" width="30" height="1" fill="#FFFFFF" opacity="0.418"/><path d="M300 810h90v5h-90z" fill="url(#msombra)" opacity="0.328"/><rect x="300" y="780" width="90" height="30" fill="rgb(128,158,206)" opacity="0.126"/><rect x="300" y="780" width="90" height="1" fill="#FFFFFF" opacity="0.302"/><path d="M0 1050h60v5h-60z" fill="url(#msombra)" opacity="0.413"/><rect x="0" y="1020" width="60" height="30" fill="rgb(150,176,216)" opacity="0.159"/><rect x="0" y="1020" width="60" height="1" fill="#FFFFFF" opacity="0.382"/><path d="M270 600h90v5h-90z" fill="url(#msombra)" opacity="0.211"/><rect x="270" y="570" width="90" height="30" fill="rgb(176,196,226)" opacity="0.081"/><rect x="270" y="570" width="90" height="1" fill="#FFFFFF" opacity="0.194"/><path d="M90 1080h60v5h-60z" fill="url(#msombra)" opacity="0.317"/><rect x="90" y="1050" width="60" height="30" fill="rgb(150,176,216)" opacity="0.122"/><rect x="90" y="1050" width="60" height="1" fill="#FFFFFF" opacity="0.293"/><path d="M210 1200h120v5h-120z" fill="url(#msombra)" opacity="0.426"/><rect x="210" y="1170" width="120" height="30" fill="rgb(198,213,236)" opacity="0.164"/><rect x="210" y="1170" width="120" height="1" fill="#FFFFFF" opacity="0.394"/><path d="M120 810h150v5h-150z" fill="url(#msombra)" opacity="0.276"/><rect x="120" y="780" width="150" height="30" fill="rgb(128,158,206)" opacity="0.106"/><rect x="120" y="780" width="150" height="1" fill="#FFFFFF" opacity="0.254"/><path d="M210 510h90v5h-90z" fill="url(#msombra)" opacity="0.187"/><rect x="210" y="480" width="90" height="30" fill="rgb(128,158,206)" opacity="0.072"/><rect x="210" y="480" width="90" height="1" fill="#FFFFFF" opacity="0.173"/><path d="M150 1020h120v5h-120z" fill="url(#msombra)" opacity="0.346"/><rect x="150" y="990" width="120" height="30" fill="rgb(198,213,236)" opacity="0.133"/><rect x="150" y="990" width="120" height="1" fill="#FFFFFF" opacity="0.319"/><path d="M30 930h60v5h-60z" fill="url(#msombra)" opacity="0.286"/><rect x="30" y="900" width="60" height="30" fill="rgb(150,176,216)" opacity="0.11"/><rect x="30" y="900" width="60" height="1" fill="#FFFFFF" opacity="0.264"/><path d="M90 1050h60v5h-60z" fill="url(#msombra)" opacity="0.346"/><rect x="90" y="1020" width="60" height="30" fill="rgb(198,213,236)" opacity="0.133"/><rect x="90" y="1020" width="60" height="1" fill="#FFFFFF" opacity="0.319"/><path d="M0 1140h150v5h-150z" fill="url(#msombra)" opacity="0.465"/><rect x="0" y="1110" width="150" height="30" fill="rgb(198,213,236)" opacity="0.179"/><rect x="0" y="1110" width="150" height="1" fill="#FFFFFF" opacity="0.43"/><path d="M0 1170h150v5h-150z" fill="url(#msombra)" opacity="0.304"/><rect x="0" y="1140" width="150" height="30" fill="rgb(176,196,226)" opacity="0.117"/><rect x="0" y="1140" width="150" height="1" fill="#FFFFFF" opacity="0.281"/><path d="M240 1140h150v5h-150z" fill="url(#msombra)" opacity="0.33"/><rect x="240" y="1110" width="150" height="30" fill="rgb(128,158,206)" opacity="0.127"/><rect x="240" y="1110" width="150" height="1" fill="#FFFFFF" opacity="0.305"/><path d="M330 600h90v5h-90z" fill="url(#msombra)" opacity="0.229"/><rect x="330" y="570" width="90" height="30" fill="rgb(128,158,206)" opacity="0.088"/><rect x="330" y="570" width="90" height="1" fill="#FFFFFF" opacity="0.211"/><path d="M120 810h30v5h-30z" fill="url(#msombra)" opacity="0.281"/><rect x="120" y="780" width="30" height="30" fill="rgb(128,158,206)" opacity="0.108"/><rect x="120" y="780" width="30" height="1" fill="#FFFFFF" opacity="0.259"/><path d="M300 1110h60v5h-60z" fill="url(#msombra)" opacity="0.393"/><rect x="300" y="1080" width="60" height="30" fill="rgb(150,176,216)" opacity="0.151"/><rect x="300" y="1080" width="60" height="1" fill="#FFFFFF" opacity="0.362"/><path d="M300 300h90v5h-90z" fill="url(#msombra)" opacity="0.182"/><rect x="300" y="270" width="90" height="30" fill="rgb(150,176,216)" opacity="0.07"/><rect x="300" y="270" width="90" height="1" fill="#FFFFFF" opacity="0.168"/><path d="M270 270h30v5h-30z" fill="url(#msombra)" opacity="0.122"/><rect x="270" y="240" width="30" height="30" fill="rgb(150,176,216)" opacity="0.047"/><rect x="270" y="240" width="30" height="1" fill="#FFFFFF" opacity="0.113"/><path d="M120 1110h90v5h-90z" fill="url(#msombra)" opacity="0.403"/><rect x="120" y="1080" width="90" height="30" fill="rgb(128,158,206)" opacity="0.155"/><rect x="120" y="1080" width="90" height="1" fill="#FFFFFF" opacity="0.372"/><path d="M360 1170h150v5h-150z" fill="url(#msombra)" opacity="0.484"/><rect x="360" y="1140" width="150" height="30" fill="rgb(150,176,216)" opacity="0.186"/><rect x="360" y="1140" width="150" height="1" fill="#FFFFFF" opacity="0.446"/><path d="M120 1200h150v5h-150z" fill="url(#msombra)" opacity="0.398"/><rect x="120" y="1170" width="150" height="30" fill="rgb(128,158,206)" opacity="0.153"/><rect x="120" y="1170" width="150" height="1" fill="#FFFFFF" opacity="0.367"/><path d="M390 1170h150v5h-150z" fill="url(#msombra)" opacity="0.419"/><rect x="390" y="1140" width="150" height="30" fill="rgb(128,158,206)" opacity="0.161"/><rect x="390" y="1140" width="150" height="1" fill="#FFFFFF" opacity="0.386"/><path d="M390 960h90v5h-90z" fill="url(#msombra)" opacity="0.317"/><rect x="390" y="930" width="90" height="30" fill="rgb(198,213,236)" opacity="0.122"/><rect x="390" y="930" width="90" height="1" fill="#FFFFFF" opacity="0.293"/><path d="M390 750h150v5h-150z" fill="url(#msombra)" opacity="0.231"/><rect x="390" y="720" width="150" height="30" fill="rgb(198,213,236)" opacity="0.089"/><rect x="390" y="720" width="150" height="1" fill="#FFFFFF" opacity="0.214"/><path d="M270 300h60v5h-60z" fill="url(#msombra)" opacity="0.166"/><rect x="270" y="270" width="60" height="30" fill="rgb(150,176,216)" opacity="0.064"/><rect x="270" y="270" width="60" height="1" fill="#FFFFFF" opacity="0.154"/><path d="M0 810h60v5h-60z" fill="url(#msombra)" opacity="0.263"/><rect x="0" y="780" width="60" height="30" fill="rgb(150,176,216)" opacity="0.101"/><rect x="0" y="780" width="60" height="1" fill="#FFFFFF" opacity="0.242"/><path d="M240 720h60v5h-60z" fill="url(#msombra)" opacity="0.283"/><rect x="240" y="690" width="60" height="30" fill="rgb(150,176,216)" opacity="0.109"/><rect x="240" y="690" width="60" height="1" fill="#FFFFFF" opacity="0.262"/><path d="M150 1050h120v5h-120z" fill="url(#msombra)" opacity="0.447"/><rect x="150" y="1020" width="120" height="30" fill="rgb(150,176,216)" opacity="0.172"/><rect x="150" y="1020" width="120" height="1" fill="#FFFFFF" opacity="0.413"/><path d="M60 960h120v5h-120z" fill="url(#msombra)" opacity="0.411"/><rect x="60" y="930" width="120" height="30" fill="rgb(150,176,216)" opacity="0.158"/><rect x="60" y="930" width="120" height="1" fill="#FFFFFF" opacity="0.379"/><path d="M240 1050h30v5h-30z" fill="url(#msombra)" opacity="0.429"/><rect x="240" y="1020" width="30" height="30" fill="rgb(150,176,216)" opacity="0.165"/><rect x="240" y="1020" width="30" height="1" fill="#FFFFFF" opacity="0.396"/><path d="M300 1050h60v5h-60z" fill="url(#msombra)" opacity="0.377"/><rect x="300" y="1020" width="60" height="30" fill="rgb(198,213,236)" opacity="0.145"/><rect x="300" y="1020" width="60" height="1" fill="#FFFFFF" opacity="0.348"/><path d="M360 1200h90v5h-90z" fill="url(#msombra)" opacity="0.458"/><rect x="360" y="1170" width="90" height="30" fill="rgb(198,213,236)" opacity="0.176"/><rect x="360" y="1170" width="90" height="1" fill="#FFFFFF" opacity="0.422"/><path d="M60 1140h150v5h-150z" fill="url(#msombra)" opacity="0.359"/><rect x="60" y="1110" width="150" height="30" fill="rgb(198,213,236)" opacity="0.138"/><rect x="60" y="1110" width="150" height="1" fill="#FFFFFF" opacity="0.331"/><path d="M30 570h150v5h-150z" fill="url(#msombra)" opacity="0.244"/><rect x="30" y="540" width="150" height="30" fill="rgb(198,213,236)" opacity="0.094"/><rect x="30" y="540" width="150" height="1" fill="#FFFFFF" opacity="0.226"/><path d="M210 960h120v5h-120z" fill="url(#msombra)" opacity="0.367"/><rect x="210" y="930" width="120" height="30" fill="rgb(176,196,226)" opacity="0.141"/><rect x="210" y="930" width="120" height="1" fill="#FFFFFF" opacity="0.338"/><path d="M240 810h60v5h-60z" fill="url(#msombra)" opacity="0.237"/><rect x="240" y="780" width="60" height="30" fill="rgb(176,196,226)" opacity="0.091"/><rect x="240" y="780" width="60" height="1" fill="#FFFFFF" opacity="0.218"/><path d="M150 900h30v5h-30z" fill="url(#msombra)" opacity="0.328"/><rect x="150" y="870" width="30" height="30" fill="rgb(176,196,226)" opacity="0.126"/><rect x="150" y="870" width="30" height="1" fill="#FFFFFF" opacity="0.302"/><path d="M150 1110h90v5h-90z" fill="url(#msombra)" opacity="0.471"/><rect x="150" y="1080" width="90" height="30" fill="rgb(150,176,216)" opacity="0.181"/><rect x="150" y="1080" width="90" height="1" fill="#FFFFFF" opacity="0.434"/><path d="M330 750h90v5h-90z" fill="url(#msombra)" opacity="0.221"/><rect x="330" y="720" width="90" height="30" fill="rgb(176,196,226)" opacity="0.085"/><rect x="330" y="720" width="90" height="1" fill="#FFFFFF" opacity="0.204"/><path d="M210 990h90v5h-90z" fill="url(#msombra)" opacity="0.309"/><rect x="210" y="960" width="90" height="30" fill="rgb(128,158,206)" opacity="0.119"/><rect x="210" y="960" width="90" height="1" fill="#FFFFFF" opacity="0.286"/><path d="M90 1110h60v5h-60z" fill="url(#msombra)" opacity="0.429"/><rect x="90" y="1080" width="60" height="30" fill="rgb(150,176,216)" opacity="0.165"/><rect x="90" y="1080" width="60" height="1" fill="#FFFFFF" opacity="0.396"/><path d="M0 1170h150v5h-150z" fill="url(#msombra)" opacity="0.445"/><rect x="0" y="1140" width="150" height="30" fill="rgb(198,213,236)" opacity="0.171"/><rect x="0" y="1140" width="150" height="1" fill="#FFFFFF" opacity="0.41"/><path d="M270 1170h90v5h-90z" fill="url(#msombra)" opacity="0.398"/><rect x="270" y="1140" width="90" height="30" fill="rgb(198,213,236)" opacity="0.153"/><rect x="270" y="1140" width="90" height="1" fill="#FFFFFF" opacity="0.367"/><path d="M60 960h90v5h-90z" fill="url(#msombra)" opacity="0.413"/><rect x="60" y="930" width="90" height="30" fill="rgb(128,158,206)" opacity="0.159"/><rect x="60" y="930" width="90" height="1" fill="#FFFFFF" opacity="0.382"/><path d="M330 840h90v5h-90z" fill="url(#msombra)" opacity="0.278"/><rect x="330" y="810" width="90" height="30" fill="rgb(128,158,206)" opacity="0.107"/><rect x="330" y="810" width="90" height="1" fill="#FFFFFF" opacity="0.257"/><path d="M300 570h90v5h-90z" fill="url(#msombra)" opacity="0.226"/><rect x="300" y="540" width="90" height="30" fill="rgb(150,176,216)" opacity="0.087"/><rect x="300" y="540" width="90" height="1" fill="#FFFFFF" opacity="0.209"/><path d="M330 780h60v5h-60z" fill="url(#msombra)" opacity="0.276"/><rect x="330" y="750" width="60" height="30" fill="rgb(176,196,226)" opacity="0.106"/><rect x="330" y="750" width="60" height="1" fill="#FFFFFF" opacity="0.254"/><path d="M210 1050h90v5h-90z" fill="url(#msombra)" opacity="0.455"/><rect x="210" y="1020" width="90" height="30" fill="rgb(176,196,226)" opacity="0.175"/><rect x="210" y="1020" width="90" height="1" fill="#FFFFFF" opacity="0.42"/><path d="M210 1050h90v5h-90z" fill="url(#msombra)" opacity="0.452"/><rect x="210" y="1020" width="90" height="30" fill="rgb(150,176,216)" opacity="0.174"/><rect x="210" y="1020" width="90" height="1" fill="#FFFFFF" opacity="0.418"/><path d="M300 960h120v5h-120z" fill="url(#msombra)" opacity="0.333"/><rect x="300" y="930" width="120" height="30" fill="rgb(198,213,236)" opacity="0.128"/><rect x="300" y="930" width="120" height="1" fill="#FFFFFF" opacity="0.307"/><path d="M150 1020h60v5h-60z" fill="url(#msombra)" opacity="0.406"/><rect x="150" y="990" width="60" height="30" fill="rgb(198,213,236)" opacity="0.156"/><rect x="150" y="990" width="60" height="1" fill="#FFFFFF" opacity="0.374"/><path d="M60 330h60v5h-60z" fill="url(#msombra)" opacity="0.195"/><rect x="60" y="300" width="60" height="30" fill="rgb(176,196,226)" opacity="0.075"/><rect x="60" y="300" width="60" height="1" fill="#FFFFFF" opacity="0.18"/><rect x="0" y="0" width="420" height="1200" fill="url(#mrasa)"/><ellipse cx="210" cy="120" rx="430" ry="300" fill="url(#m1)"/><circle cx="400" cy="1140" r="300" fill="url(#m2)"/></svg>